<svg width="15" height="15" viewBox="0 0 15 15" fill="none" xmlns="http://www.w3.org/2000/svg">
<path fill-rule="evenodd" clip-rule="evenodd" d="M0.876953 7.50195C0.876953 3.84307 3.84307 0.876953 7.50196 0.876953C11.1608 0.876953 14.127 3.84307 14.127 7.50195C14.127 11.1608 11.1608 14.127 7.50196 14.127C3.84307 14.127 0.876953 11.1608 0.876953 7.50195ZM1.84886 6.99991C2.08848 4.26627 4.26627 2.08848 6.99991 1.84886V4.49991C6.99991 4.77605 7.22376 4.99991 7.49991 4.99991C7.77605 4.99991 7.99991 4.77605 7.99991 4.49991V1.8485C10.7355 2.08631 12.9153 4.2649 13.1551 6.99991H10.4999C10.2238 6.99991 9.99988 7.22376 9.99988 7.49991C9.99988 7.77605 10.2238 7.99991 10.4999 7.99991H13.1554C12.9175 10.7368 10.7368 12.9175 7.99991 13.1554V10.4999C7.99991 10.2238 7.77605 9.99988 7.49991 9.99988C7.22376 9.99988 6.99991 10.2238 6.99991 10.4999V13.1551C4.2649 12.9153 2.08631 10.7355 1.8485 7.99991H4.49991C4.77605 7.99991 4.99991 7.77605 4.99991 7.49991C4.99991 7.22376 4.77605 6.99991 4.49991 6.99991H1.84886Z" fill="black"/>
</svg>
