<svg width="24" height="24" viewBox="0 0 24 24" fill="none" xmlns="http://www.w3.org/2000/svg">
<g clip-path="url(#clip0_1319_18)">
<path d="M9.68534 5.23096C7.17813 5.23134 4.77375 6.21192 3.00103 7.95702C1.2283 9.70212 0.232422 12.0688 0.232422 14.5366C0.232815 17.0041 1.22887 19.3704 3.00155 21.1152C4.77423 22.86 7.17839 23.8404 9.68534 23.8407C12.1928 23.8411 14.5977 22.8611 16.371 21.1162C18.1443 19.3713 19.1408 17.0046 19.1412 14.5366C19.1408 12.0686 18.1443 9.70182 16.371 7.95695C14.5977 6.21208 12.1928 5.23203 9.68534 5.23242V5.23096ZM12.3978 8.02512C12.8441 8.02493 13.2861 8.1113 13.6984 8.27928C14.1107 8.44727 14.4854 8.69357 14.801 9.00413C15.1165 9.31468 15.3668 9.68339 15.5375 10.0892C15.7082 10.495 15.796 10.9299 15.7958 11.3691C15.7954 12.2556 15.4371 13.1056 14.7999 13.7322C14.1627 14.3587 13.2986 14.7105 12.3978 14.7101C11.4976 14.7101 10.6341 14.3584 9.99723 13.7322C9.36035 13.1059 9.00217 12.2565 9.00138 11.3705C9.00099 10.9315 9.08851 10.4966 9.25893 10.0909C9.42935 9.68508 9.67934 9.31633 9.99462 9.00566C10.3099 8.69499 10.6843 8.44849 11.0964 8.28025C11.5085 8.112 11.9502 8.02531 12.3964 8.02512H12.3978Z" fill="black"/>
<path d="M16.936 3.58127C16.936 4.02021 17.0239 4.45486 17.1946 4.86039C17.3653 5.26592 17.6154 5.63439 17.9308 5.94477C18.2462 6.25515 18.6206 6.50136 19.0327 6.66934C19.4448 6.83731 19.8865 6.92377 20.3325 6.92377C20.7785 6.92377 21.2202 6.83731 21.6323 6.66934C22.0443 6.50136 22.4188 6.25515 22.7342 5.94477C23.0495 5.63439 23.2997 5.26592 23.4704 4.86039C23.6411 4.45486 23.729 4.02021 23.729 3.58127C23.729 3.14233 23.6411 2.70768 23.4704 2.30215C23.2997 1.89662 23.0495 1.52815 22.7342 1.21777C22.4188 0.907385 22.0443 0.661178 21.6323 0.493202C21.2202 0.325226 20.7785 0.23877 20.3325 0.23877C19.8865 0.23877 19.4448 0.325226 19.0327 0.493202C18.6206 0.661178 18.2462 0.907385 17.9308 1.21777C17.6154 1.52815 17.3653 1.89662 17.1946 2.30215C17.0239 2.70768 16.936 3.14233 16.936 3.58127Z" fill="black"/>
</g>
<defs>
<clipPath id="clip0_1319_18">
<rect width="24" height="24" fill="white"/>
</clipPath>
</defs>
</svg>
